<?xml version="1.0" standalone="no"?>
<!DOCTYPE svg PUBLIC "-//W3C//DTD SVG 20010904//EN"
 "http://www.w3.org/TR/2001/REC-SVG-20010904/DTD/svg10.dtd">
<svg version="1.0" xmlns="http://www.w3.org/2000/svg"
 width="835.000000pt" height="599.000000pt" viewBox="0 0 835.000000 599.000000"
 preserveAspectRatio="xMidYMid meet">
<metadata>
Created by potrace 1.16, written by Peter Selinger 2001-2019
</metadata>
<g transform="translate(0.000000,599.000000) scale(0.100000,-0.100000)"
fill="#000000" stroke="none">
<path d="M7843 5983 c-46 -2 -83 -8 -83 -13 0 -6 -27 -10 -60 -10 -33 0 -60
-4 -60 -10 0 -5 -25 -10 -55 -10 -30 0 -55 -4 -55 -9 0 -5 -38 -12 -85 -16
-47 -4 -85 -11 -85 -16 0 -5 -16 -9 -35 -9 -19 0 -35 -4 -35 -10 0 -5 -16 -10
-35 -10 -19 0 -35 -4 -35 -9 0 -5 -25 -13 -55 -16 -30 -4 -55 -11 -55 -16 0
-5 -11 -9 -25 -9 -14 0 -25 -4 -25 -10 0 -5 -11 -10 -25 -10 -14 0 -25 -4 -25
-9 0 -4 -19 -11 -42 -14 -24 -3 -44 -11 -46 -16 -2 -6 -15 -11 -28 -11 -13 0
-24 -4 -24 -10 0 -5 -9 -10 -20 -10 -11 0 -20 -4 -20 -9 0 -5 -16 -12 -35 -15
-19 -4 -35 -11 -35 -16 0 -6 -9 -10 -20 -10 -11 0 -20 -4 -20 -10 0 -5 -7 -10
-15 -10 -8 0 -15 -4 -15 -10 0 -5 -9 -10 -20 -10 -11 0 -20 -4 -20 -9 0 -5
-11 -12 -25 -15 -14 -4 -25 -11 -25 -16 0 -6 -7 -10 -15 -10 -8 0 -15 -4 -15
-10 0 -5 -9 -10 -20 -10 -11 0 -20 -4 -20 -9 0 -5 -10 -13 -22 -17 -13 -4 -35
-20 -49 -35 -15 -16 -32 -29 -38 -29 -5 0 -21 -11 -35 -25 -14 -14 -28 -25
-31 -25 -13 0 -85 -68 -85 -80 0 -5 -9 -12 -21 -15 -24 -8 -109 -89 -109 -104
0 -9 -10 -20 -62 -68 -20 -19 -38 -41 -38 -49 0 -3 -13 -19 -30 -34 -16 -15
-30 -33 -30 -39 0 -5 -11 -21 -23 -33 -13 -13 -32 -43 -42 -66 -10 -23 -22
-42 -27 -42 -4 0 -8 -7 -8 -15 0 -8 -4 -15 -10 -15 -5 0 -10 -9 -10 -20 0 -11
-4 -20 -10 -20 -5 0 -12 -11 -16 -25 -3 -14 -10 -25 -15 -25 -5 0 -9 -9 -9
-20 0 -11 -4 -20 -10 -20 -5 0 -10 -7 -10 -15 0 -8 -4 -15 -9 -15 -6 0 -13
-20 -17 -45 -3 -25 -10 -45 -15 -45 -5 0 -9 -7 -9 -15 0 -8 -4 -15 -10 -15 -5
0 -10 -13 -10 -29 0 -16 -5 -31 -11 -33 -5 -2 -13 -22 -16 -46 -3 -23 -10 -42
-14 -42 -5 0 -9 -11 -9 -25 0 -14 -4 -25 -10 -25 -5 0 -10 -11 -10 -25 0 -14
-4 -25 -10 -25 -5 0 -10 -15 -10 -34 0 -19 -4 -37 -9 -41 -5 -3 -13 -34 -16
-70 -4 -36 -11 -65 -16 -65 -5 0 -9 -25 -9 -55 0 -30 -4 -55 -9 -55 -6 0 -11
-17 -13 -37 -2 -21 -7 22 -12 94 -4 73 -12 135 -17 139 -5 3 -9 23 -9 45 0 21
-4 39 -10 39 -5 0 -10 20 -10 45 0 25 -4 45 -9 45 -4 0 -11 30 -14 67 -4 38
-11 69 -17 71 -5 2 -10 19 -10 38 0 19 -4 34 -10 34 -5 0 -10 13 -10 29 0 16
-5 31 -11 33 -7 2 -12 28 -13 60 0 47 4 60 22 76 12 11 22 24 22 31 0 6 5 11
10 11 6 0 10 9 10 20 0 11 7 23 15 26 8 4 15 15 15 25 0 10 5 19 10 19 6 0 10
7 10 15 0 8 4 15 9 15 5 0 12 16 15 35 4 19 11 35 16 35 6 0 10 9 10 20 0 11
3 20 8 20 10 0 42 75 42 100 0 11 5 20 10 20 6 0 10 9 10 20 0 11 3 20 8 20
11 0 30 49 38 98 4 23 10 42 15 42 5 0 9 11 9 25 0 14 5 25 10 25 6 0 10 16
10 35 0 19 5 35 10 35 6 0 10 19 10 43 0 24 4 47 9 52 5 6 10 55 11 110 4 152
2 175 -15 175 -8 0 -15 -4 -15 -10 0 -5 -8 -10 -19 -10 -10 0 -27 -11 -37 -25
-10 -14 -25 -25 -32 -25 -16 0 -162 -145 -162 -160 0 -6 -11 -21 -25 -34 -14
-13 -25 -30 -25 -39 0 -9 -8 -18 -19 -22 -11 -3 -21 -19 -25 -37 -3 -17 -14
-38 -25 -47 -10 -9 -21 -25 -24 -36 -2 -11 -5 6 -6 38 0 31 -5 57 -10 57 -4 0
-11 30 -14 67 -4 38 -11 69 -17 71 -5 2 -10 15 -10 28 0 13 -4 24 -10 24 -5 0
-10 11 -10 25 0 14 -9 34 -20 45 -22 22 -40 26 -40 10 0 -6 -9 -20 -19 -32
-11 -11 -23 -38 -26 -59 -4 -22 -11 -39 -16 -39 -5 0 -9 -16 -9 -35 0 -19 -4
-35 -10 -35 -5 0 -10 -20 -10 -45 0 -25 -4 -45 -10 -45 -6 0 -10 -37 -10 -90
0 -49 -2 -90 -5 -90 -2 0 -60 56 -129 125 -68 69 -131 125 -139 125 -9 0 -19
9 -22 20 -4 13 -18 23 -36 27 -16 3 -29 9 -29 14 0 5 -5 9 -11 9 -7 0 -19 8
-28 18 -19 21 -82 52 -105 52 -9 0 -16 5 -16 10 0 6 -7 10 -15 10 -8 0 -15 5
-15 10 0 6 -11 10 -25 10 -14 0 -25 4 -25 9 0 6 -20 13 -45 17 -25 3 -45 10
-45 15 0 5 -16 9 -35 9 -19 0 -35 5 -35 10 0 6 -15 10 -33 10 -18 0 -39 6 -46
13 -9 9 -103 12 -398 12 -300 0 -387 -3 -391 -12 -2 -8 -21 -13 -48 -13 -24 0
-44 -4 -44 -10 0 -5 -20 -10 -45 -10 -25 0 -45 -4 -45 -9 0 -5 -32 -12 -70
-16 -63 -6 -70 -9 -70 -29 0 -15 11 -26 40 -39 22 -9 44 -17 48 -17 4 0 14 -9
22 -20 8 -11 20 -20 27 -20 16 0 193 -177 193 -193 0 -7 9 -19 20 -27 11 -8
20 -18 20 -23 0 -5 7 -15 15 -23 8 -9 15 -24 15 -35 0 -10 5 -19 10 -19 6 0
10 -11 10 -25 0 -14 5 -25 10 -25 6 0 10 -7 10 -15 0 -8 5 -15 10 -15 6 0 10
-7 10 -16 0 -23 31 -86 52 -105 10 -9 18 -21 18 -27 0 -6 19 -31 43 -57 23
-25 56 -61 72 -80 17 -19 34 -35 38 -35 4 0 19 -10 32 -22 37 -35 54 -48 61
-48 4 0 14 -8 23 -18 9 -10 35 -27 59 -37 23 -10 42 -22 42 -27 0 -4 7 -8 15
-8 8 0 15 -4 15 -10 0 -5 8 -10 19 -10 10 0 32 -7 47 -15 16 -8 39 -15 52 -15
12 0 22 -4 22 -10 0 -5 14 -10 30 -10 17 0 30 -4 30 -10 0 -5 15 -10 34 -10
19 0 36 -6 39 -12 3 -10 52 -13 202 -13 150 0 199 3 203 13 2 6 12 12 22 12
10 0 22 9 25 20 3 11 15 20 26 20 10 0 19 7 19 15 0 8 5 15 10 15 6 0 10 32
10 75 0 43 -4 75 -10 75 -5 0 -10 8 -10 18 0 9 -11 26 -25 36 -14 10 -25 26
-25 34 0 15 -36 52 -51 52 -4 0 -11 10 -15 23 -10 31 -95 117 -116 117 -10 0
-18 4 -18 10 0 13 -72 80 -86 80 -4 0 -14 8 -23 18 -9 10 -31 27 -48 37 -18
11 -33 23 -33 27 0 4 -9 8 -20 8 -11 0 -20 5 -20 10 0 6 -7 10 -15 10 -8 0
-15 4 -15 10 0 5 -11 12 -25 16 -14 3 -25 10 -25 15 0 5 -9 9 -20 9 -11 0 -20
5 -20 10 0 6 -9 10 -20 10 -11 0 -20 4 -20 10 0 5 -18 13 -40 16 -22 4 -40 10
-40 15 0 5 -9 9 -20 9 -11 0 -20 5 -20 10 0 6 -11 10 -25 10 -14 0 -25 4 -25
9 0 5 -25 13 -55 16 -30 4 -55 11 -55 16 0 5 -16 9 -35 9 -19 0 -35 4 -35 9 0
6 -17 12 -37 14 -21 2 6 4 60 5 59 1 97 -2 97 -8 0 -5 18 -10 39 -10 22 0 43
-4 46 -10 3 -5 17 -10 31 -10 13 0 24 -4 24 -9 0 -5 23 -12 50 -16 28 -4 50
-11 50 -16 0 -5 9 -9 20 -9 11 0 20 -3 20 -8 0 -8 73 -42 90 -42 6 0 10 -4 10
-10 0 -5 9 -10 20 -10 11 0 20 -4 20 -10 0 -5 7 -10 15 -10 8 0 15 -4 15 -10
0 -5 12 -13 28 -16 15 -4 34 -15 43 -26 9 -10 21 -18 28 -18 6 0 11 -4 11 -9
0 -5 10 -13 22 -17 13 -4 35 -20 49 -35 15 -16 32 -29 37 -29 6 0 31 -20 55
-44 25 -24 54 -47 66 -51 11 -3 22 -14 25 -23 3 -10 16 -24 28 -32 11 -8 31
-26 42 -39 12 -13 27 -29 34 -35 7 -6 23 -22 36 -35 39 -39 43 -42 70 -68 14
-13 26 -28 26 -33 0 -5 9 -12 20 -15 11 -3 20 -13 20 -22 0 -9 16 -31 35 -50
19 -19 35 -40 35 -48 0 -8 4 -15 10 -15 5 0 12 -11 16 -25 3 -14 10 -25 15
-25 5 0 9 -9 9 -20 0 -11 5 -20 10 -20 6 0 10 -7 10 -15 0 -8 5 -15 10 -15 6
0 10 -9 10 -20 0 -25 32 -100 42 -100 5 0 8 -13 8 -30 0 -16 5 -30 10 -30 6 0
10 -11 10 -25 0 -14 4 -25 9 -25 5 0 13 -25 16 -55 4 -30 11 -55 16 -55 5 0 9
-16 9 -35 0 -19 5 -35 10 -35 6 0 10 -16 10 -35 0 -19 4 -35 9 -35 5 0 12 -31
16 -70 4 -38 11 -70 16 -70 5 0 9 -20 9 -45 0 -25 5 -45 10 -45 6 0 10 -18 10
-40 0 -22 4 -40 9 -40 5 0 12 -47 16 -105 4 -58 11 -108 16 -111 5 -3 9 -36 9
-75 0 -39 4 -69 10 -69 6 0 10 -68 10 -185 0 -102 4 -185 8 -185 5 0 12 -93
16 -207 4 -119 11 -209 16 -211 6 -2 10 -35 10 -73 0 -39 4 -69 10 -69 6 0 10
-25 10 -55 0 -30 4 -55 9 -55 5 0 12 -43 16 -95 4 -52 11 -95 16 -95 5 0 9
-20 9 -45 0 -25 5 -45 10 -45 6 0 10 -20 10 -45 0 -25 5 -45 10 -45 6 0 10
-18 10 -40 0 -22 4 -40 9 -40 5 0 12 -31 16 -70 4 -38 11 -70 16 -70 5 0 9
-16 9 -35 0 -19 5 -35 10 -35 6 0 10 -13 10 -30 0 -16 4 -30 9 -30 5 0 12 -31
16 -70 4 -38 11 -70 16 -70 5 0 9 -11 9 -25 0 -14 5 -25 10 -25 6 0 10 -11 10
-25 0 -14 5 -25 10 -25 6 0 9 -12 9 -27 -2 -24 -2 -25 -6 -5 -2 12 -9 22 -14
22 -5 0 -9 7 -9 15 0 8 -3 15 -8 15 -4 0 -16 16 -26 35 -11 19 -23 35 -28 35
-4 0 -8 7 -8 16 0 9 -8 24 -19 33 -10 9 -21 26 -25 39 -4 12 -12 22 -17 22 -5
0 -9 6 -9 13 0 7 -9 19 -20 27 -11 8 -20 23 -20 33 0 9 -7 20 -15 23 -8 4 -15
14 -15 23 0 9 -9 23 -20 31 -11 8 -20 20 -20 27 0 7 -11 23 -25 37 -14 14 -25
28 -25 31 0 4 -6 13 -12 20 -27 30 -38 44 -38 50 0 3 -11 17 -25 31 -14 14
-25 30 -25 35 0 6 -13 24 -30 39 -16 15 -30 31 -30 34 0 7 -13 24 -47 61 -13
13 -23 27 -23 30 0 7 -14 24 -47 60 -13 13 -23 27 -23 31 0 4 -20 27 -45 51
-25 23 -45 48 -45 54 0 6 -38 49 -85 95 -47 46 -85 90 -85 97 0 7 -10 19 -21
27 -12 8 -27 21 -33 28 -51 57 -188 192 -196 192 -5 0 -41 31 -80 70 -39 38
-74 70 -79 70 -5 0 -30 20 -54 45 -25 25 -48 45 -52 45 -8 0 -31 19 -57 48
-12 12 -28 22 -35 22 -7 0 -13 4 -13 9 0 5 -10 13 -22 17 -13 4 -34 19 -48 34
-14 15 -35 30 -48 34 -12 4 -22 12 -22 17 0 5 -9 9 -19 9 -11 0 -23 9 -26 20
-3 11 -15 20 -25 20 -10 0 -25 7 -34 15 -8 8 -19 15 -25 15 -6 0 -11 5 -11 10
0 6 -9 10 -20 10 -11 0 -20 5 -20 10 0 6 -17 18 -37 28 -21 9 -45 25 -54 34
-9 10 -23 18 -30 18 -8 0 -23 7 -33 15 -11 8 -28 15 -38 15 -10 0 -18 5 -18
10 0 6 -7 10 -15 10 -8 0 -15 5 -15 10 0 6 -9 10 -19 10 -11 0 -21 5 -23 11
-2 5 -22 13 -46 16 -23 3 -42 10 -42 14 0 5 -7 9 -15 9 -8 0 -15 5 -15 10 0 6
-11 10 -25 10 -14 0 -25 4 -25 9 0 6 -20 13 -45 17 -25 3 -45 10 -45 15 0 5
-13 9 -30 9 -16 0 -30 5 -30 10 0 6 -11 10 -25 10 -14 0 -25 4 -25 10 0 5 -27
12 -60 16 -33 4 -60 11 -60 15 0 5 -16 9 -35 9 -19 0 -35 5 -35 10 0 6 -20 10
-45 10 -25 0 -45 4 -45 9 0 5 -26 12 -57 15 -32 3 -101 10 -153 15 -52 5 -162
9 -245 9 -82 0 -193 -4 -245 -9 -52 -5 -121 -12 -153 -15 -31 -3 -57 -10 -57
-15 0 -5 -20 -9 -45 -9 -25 0 -45 -4 -45 -10 0 -5 -18 -10 -40 -10 -22 0 -40
-4 -40 -9 0 -5 -29 -13 -65 -16 -36 -4 -65 -11 -65 -16 0 -5 -11 -9 -25 -9
-14 0 -25 -4 -25 -10 0 -5 -11 -10 -25 -10 -14 0 -25 -4 -25 -9 0 -5 -25 -12
-55 -16 -30 -3 -55 -11 -55 -16 0 -5 -7 -9 -15 -9 -8 0 -15 -4 -15 -10 0 -5
-13 -10 -30 -10 -16 0 -30 -4 -30 -10 0 -5 -16 -12 -35 -16 -19 -3 -35 -10
-35 -15 0 -5 -7 -9 -15 -9 -8 0 -15 -4 -15 -10 0 -5 -9 -10 -20 -10 -11 0 -20
-4 -20 -10 0 -5 -16 -12 -35 -16 -19 -3 -35 -10 -35 -15 0 -5 -7 -9 -15 -9 -8
0 -15 -4 -15 -10 0 -5 -9 -10 -20 -10 -11 0 -20 -3 -20 -7 0 -5 -21 -17 -48
-27 -26 -11 -54 -28 -63 -38 -9 -10 -24 -18 -33 -18 -9 0 -16 -4 -16 -9 0 -5
-11 -12 -25 -15 -14 -4 -25 -11 -25 -16 0 -6 -9 -10 -20 -10 -11 0 -20 -4 -20
-10 0 -5 -7 -10 -15 -10 -8 0 -15 -4 -15 -9 0 -5 -10 -13 -22 -17 -13 -4 -30
-15 -39 -25 -9 -11 -24 -19 -33 -19 -9 0 -16 -4 -16 -10 0 -5 -16 -16 -35 -25
-19 -10 -37 -25 -40 -36 -4 -10 -15 -19 -26 -19 -10 0 -29 -11 -41 -25 -12
-14 -25 -25 -30 -25 -5 0 -21 -11 -36 -25 -15 -14 -31 -25 -37 -25 -5 0 -23
-16 -40 -35 -16 -19 -37 -35 -45 -35 -9 0 -22 -10 -30 -21 -8 -12 -20 -27 -27
-33 -25 -23 -42 -36 -48 -36 -3 0 -17 -11 -32 -24 -26 -25 -30 -28 -69 -67
-31 -32 -52 -49 -59 -49 -4 0 -71 -65 -151 -145 -91 -91 -144 -151 -144 -165
0 -19 6 -20 119 -20 66 0 122 -4 125 -9 3 -4 49 -11 103 -15 54 -4 99 -11 101
-16 2 -6 19 -10 38 -10 19 0 34 -4 34 -10 0 -5 14 -10 30 -10 17 0 30 -4 30
-9 0 -5 23 -12 50 -16 28 -4 50 -11 50 -16 0 -5 9 -9 20 -9 11 0 20 -4 20 -10
0 -5 11 -10 25 -10 14 0 25 -4 25 -10 0 -5 8 -10 18 -10 9 0 26 -7 36 -15 11
-8 28 -15 38 -15 10 0 18 -4 18 -10 0 -5 7 -10 15 -10 8 0 15 -4 15 -10 0 -5
9 -10 20 -10 11 0 20 -4 20 -9 0 -5 11 -12 25 -15 14 -4 25 -11 25 -16 0 -6 7
-10 15 -10 8 0 15 -4 15 -9 0 -5 18 -17 40 -27 22 -10 40 -21 40 -26 0 -4 5
-8 10 -8 6 0 22 -11 36 -25 14 -14 31 -25 39 -25 8 0 15 -4 15 -10 0 -5 9 -10
19 -10 11 0 23 -9 26 -20 3 -11 15 -20 25 -20 10 0 25 -7 34 -15 8 -8 19 -15
25 -15 6 0 11 -4 11 -10 0 -5 9 -10 20 -10 11 0 20 -4 20 -10 0 -5 6 -10 14
-10 7 0 19 -7 26 -15 7 -8 21 -15 31 -15 11 0 19 -4 19 -10 0 -5 7 -10 15 -10
8 0 15 -4 15 -10 0 -5 8 -10 18 -10 9 0 26 -7 36 -15 11 -8 28 -15 38 -15 10
0 18 -4 18 -10 0 -5 11 -10 25 -10 14 0 25 -3 25 -8 0 -4 15 -13 33 -21 17 -7
45 -20 61 -27 16 -8 37 -14 48 -14 10 0 18 -3 18 -8 0 -11 49 -30 98 -38 23
-4 42 -10 42 -15 0 -5 11 -9 25 -9 14 0 25 -4 25 -10 0 -5 11 -10 25 -10 14 0
25 -4 25 -9 0 -5 29 -13 65 -16 36 -4 65 -11 65 -16 0 -5 16 -9 35 -9 19 0 35
-4 35 -10 0 -5 16 -10 35 -10 19 0 35 -4 35 -9 0 -5 24 -11 53 -14 28 -4 75
-11 102 -16 28 -5 83 -10 123 -10 41 -1 72 -5 72 -11 0 -6 100 -10 280 -10
154 0 280 4 280 9 0 4 43 11 95 15 52 3 106 11 121 16 14 6 41 10 60 10 19 0
34 5 34 10 0 6 16 10 35 10 19 0 35 5 35 10 0 6 16 10 35 10 19 0 35 4 35 9 0
5 25 12 55 16 30 3 55 11 55 16 0 5 11 9 25 9 14 0 25 5 25 10 0 6 7 10 16 10
9 0 31 16 50 35 18 19 40 35 48 35 9 0 16 7 16 15 0 8 15 30 34 48 18 19 37
44 41 56 3 11 11 21 16 21 5 0 9 9 9 20 0 11 5 20 10 20 6 0 10 16 10 35 0 19
5 35 10 35 6 0 10 33 10 80 0 47 -4 80 -10 80 -5 0 -10 14 -10 30 0 17 -4 30
-10 30 -5 0 -10 7 -10 15 0 8 -4 15 -10 15 -5 0 -10 9 -10 20 0 11 -7 23 -15
26 -8 4 -15 13 -15 21 0 16 -114 133 -129 133 -6 0 -21 11 -35 25 -14 14 -28
25 -31 25 -4 0 -13 7 -21 15 -9 8 -24 15 -34 15 -10 0 -22 9 -25 20 -3 11 -15
20 -26 20 -10 0 -19 4 -19 10 0 5 -16 12 -35 16 -19 3 -35 10 -35 15 0 5 -7 9
-15 9 -8 0 -15 5 -15 10 0 6 -9 10 -20 10 -11 0 -20 4 -20 9 0 5 -20 12 -45
15 -25 4 -45 11 -45 17 0 5 -7 9 -15 9 -8 0 -15 5 -15 10 0 6 -13 10 -30 10
-16 0 -30 5 -30 10 0 6 -11 10 -24 10 -13 0 -26 5 -28 11 -2 5 -22 13 -46 16
-23 3 -42 10 -42 14 0 5 -16 9 -35 9 -19 0 -35 5 -35 10 0 6 -11 10 -25 10
-14 0 -25 4 -25 9 0 5 -32 12 -70 16 -39 4 -70 11 -70 16 0 5 -20 9 -45 9 -25
0 -45 5 -45 10 0 6 -20 10 -44 10 -24 0 -46 4 -48 10 -1 5 -60 13 -130 16 -71
4 -128 11 -128 16 0 4 -144 8 -320 8 -176 0 -320 -4 -320 -9 0 -4 -60 -11
-132 -15 -73 -4 -134 -11 -136 -16 -2 -6 -26 -10 -53 -10 -27 0 -49 -4 -49
-10 0 -5 -15 -10 -34 -10 -19 0 -37 -4 -40 -9 -3 -5 -40 -12 -81 -16 -41 -4
-75 -11 -75 -16 0 -5 -13 -9 -30 -9 -16 0 -30 -4 -30 -10 0 -5 -16 -10 -35
-10 -19 0 -35 -4 -35 -10 0 -5 -5 -10 -11 -10 -8 0 -8 5 1 15 7 8 19 15 26 15
8 0 14 4 14 10 0 5 11 12 25 16 14 3 25 10 25 15 0 5 9 9 20 9 11 0 20 5 20
10 0 6 7 10 15 10 8 0 15 4 15 9 0 5 16 12 35 15 19 4 35 11 35 16 0 6 14 10
30 10 17 0 30 5 30 10 0 6 7 10 15 10 8 0 15 4 15 9 0 5 22 12 50 16 27 4 52
11 56 16 3 5 16 9 30 9 13 0 24 5 24 10 0 6 11 10 25 10 14 0 25 4 25 9 0 5
29 12 65 16 36 3 67 11 70 16 4 5 26 9 51 9 24 0 44 5 44 10 0 6 28 10 65 10
37 0 65 4 65 10 0 6 47 10 120 10 73 0 120 4 120 10 0 6 27 10 60 10 33 0 60
-4 60 -10 0 -6 47 -10 120 -10 73 0 120 -4 120 -10 0 -6 30 -10 70 -10 40 0
70 -4 70 -10 0 -5 24 -10 53 -10 29 0 57 -4 63 -10 5 -5 42 -12 82 -16 39 -4
72 -11 72 -15 0 -5 16 -9 35 -9 19 0 35 -4 35 -10 0 -5 16 -10 35 -10 19 0 35
-4 35 -9 0 -5 25 -13 55 -16 30 -4 55 -11 55 -16 0 -5 11 -9 25 -9 14 0 25 -4
25 -10 0 -5 11 -10 24 -10 14 0 28 -4 31 -10 3 -5 28 -12 55 -16 28 -4 50 -10
50 -15 0 -5 7 -9 15 -9 8 0 15 -4 15 -10 0 -5 8 -10 19 -10 10 0 32 -7 47 -15
16 -8 39 -15 52 -15 12 0 22 -4 22 -10 0 -5 9 -10 20 -10 11 0 20 -3 20 -8 0
-9 45 -28 88 -37 17 -4 32 -11 32 -16 0 -5 9 -9 20 -9 11 0 20 -4 20 -10 0 -5
7 -10 15 -10 8 0 15 -4 15 -10 0 -5 9 -10 20 -10 11 0 20 -4 20 -10 0 -5 16
-12 35 -16 19 -3 35 -10 35 -15 0 -5 7 -9 15 -9 8 0 15 -4 15 -10 0 -5 15 -10
34 -10 19 0 37 -4 40 -9 3 -4 24 -11 46 -15 22 -3 40 -11 40 -16 0 -6 11 -10
25 -10 14 0 25 -4 25 -10 0 -5 9 -10 20 -10 11 0 20 -4 20 -10 0 -5 16 -12 35
-16 19 -3 35 -10 35 -15 0 -5 5 -9 11 -9 7 0 19 -8 28 -18 9 -11 28 -22 44
-26 15 -3 27 -11 27 -16 0 -6 7 -10 15 -10 8 0 15 -4 15 -10 0 -5 7 -10 15
-10 9 0 26 -11 39 -25 13 -14 30 -25 39 -25 9 0 19 -9 22 -20 3 -11 13 -20 22
-20 9 0 30 -16 49 -35 18 -19 37 -35 43 -35 6 0 31 -20 55 -45 25 -25 49 -45
55 -45 6 0 49 -38 95 -85 47 -47 91 -85 100 -85 8 0 17 -8 20 -17 3 -10 19
-27 36 -38 16 -11 30 -23 30 -27 0 -4 11 -18 25 -32 14 -14 25 -28 25 -31 0
-3 47 -53 105 -111 58 -57 105 -109 105 -114 0 -6 25 -35 55 -65 30 -29 55
-58 55 -64 0 -5 20 -30 44 -54 24 -25 47 -55 51 -66 3 -12 10 -21 14 -21 14 0
51 -37 51 -51 0 -8 16 -28 35 -44 19 -17 35 -35 35 -42 0 -7 11 -23 25 -37 14
-14 25 -28 25 -31 0 -4 6 -13 13 -20 28 -33 37 -45 37 -53 0 -5 11 -18 25 -30
14 -12 25 -28 25 -36 0 -7 13 -24 30 -37 16 -13 30 -32 30 -42 0 -10 7 -20 15
-23 8 -4 15 -14 15 -23 0 -9 11 -24 24 -34 13 -10 30 -32 36 -48 7 -16 16 -29
21 -29 5 0 9 -6 9 -13 0 -7 9 -19 20 -27 11 -8 20 -22 20 -31 0 -9 11 -25 25
-35 14 -10 25 -26 25 -35 0 -9 7 -19 15 -23 8 -3 15 -14 15 -23 0 -10 9 -25
20 -33 11 -8 20 -20 20 -27 0 -7 4 -13 9 -13 5 0 13 -10 17 -22 4 -13 15 -30
25 -39 11 -9 19 -24 19 -33 0 -9 4 -16 9 -16 5 0 12 -11 15 -25 4 -14 11 -25
16 -25 6 0 10 -7 10 -15 0 -8 9 -20 20 -27 11 -7 20 -20 20 -29 0 -9 7 -22 15
-29 8 -7 15 -18 15 -24 0 -6 9 -18 20 -26 11 -8 20 -20 20 -27 0 -7 5 -13 10
-13 6 0 10 -9 10 -19 0 -23 25 -51 46 -51 8 0 14 9 14 20 0 11 -4 20 -10 20
-5 0 -10 11 -10 25 0 14 -4 25 -9 25 -5 0 -12 16 -15 35 -4 19 -11 35 -16 35
-6 0 -10 14 -10 30 0 17 -4 30 -10 30 -5 0 -10 7 -10 15 0 8 -4 15 -10 15 -5
0 -10 9 -10 20 0 11 -4 20 -10 20 -5 0 -13 18 -16 40 -4 22 -10 40 -15 40 -5
0 -9 9 -9 20 0 11 -4 20 -10 20 -5 0 -10 9 -10 20 0 11 -4 20 -10 20 -5 0 -10
4 -10 10 0 17 -34 90 -42 90 -5 0 -8 9 -8 20 0 11 -4 20 -10 20 -5 0 -10 4
-10 10 0 17 -34 90 -42 90 -5 0 -8 9 -8 20 0 11 -4 20 -10 20 -5 0 -10 4 -10
10 0 17 -34 90 -42 90 -5 0 -8 9 -8 20 0 11 -4 20 -10 20 -5 0 -12 11 -16 25
-3 14 -10 25 -15 25 -5 0 -9 9 -9 20 0 11 -4 20 -10 20 -5 0 -10 7 -10 15 0 8
-4 15 -10 15 -5 0 -10 9 -10 19 0 10 -7 21 -15 25 -8 3 -15 15 -15 26 0 11 -4
20 -10 20 -5 0 -10 7 -10 15 0 8 -4 15 -10 15 -5 0 -10 9 -10 20 0 11 -4 20
-10 20 -5 0 -12 11 -16 25 -3 14 -10 25 -15 25 -5 0 -9 9 -9 20 0 11 -4 20
-10 20 -5 0 -10 11 -10 25 0 14 -4 25 -9 25 -4 0 -11 42 -15 93 -4 50 -11 94
-16 95 -6 2 -10 28 -10 58 0 30 -4 54 -10 54 -6 0 -10 26 -10 59 0 33 -4 61
-9 63 -5 2 -13 58 -17 126 -4 67 -11 122 -15 122 -5 0 -9 32 -9 70 0 40 -4 70
-10 70 -6 0 -10 36 -10 89 0 63 -4 91 -12 93 -10 4 -13 132 -13 598 0 466 3
594 13 597 7 3 12 24 12 59 0 30 5 54 10 54 6 0 10 20 10 45 0 25 4 45 9 45 4
0 11 27 15 60 4 33 11 60 16 60 6 0 10 11 10 25 0 14 5 25 10 25 6 0 10 9 10
20 0 11 4 20 10 20 5 0 12 16 16 35 3 19 9 35 13 35 4 0 13 16 21 35 8 19 17
35 21 35 5 0 11 16 15 35 3 19 10 35 15 35 5 0 9 9 9 20 0 11 5 20 10 20 6 0
10 7 10 15 0 8 5 15 10 15 6 0 10 9 10 20 0 11 7 23 15 26 8 4 15 15 15 25 0
10 5 19 10 19 6 0 10 7 10 15 0 8 5 15 10 15 6 0 10 9 10 20 0 11 4 20 10 20
5 0 12 11 16 25 3 14 10 25 15 25 5 0 9 9 9 19 0 10 7 22 15 25 9 3 21 19 26
36 6 16 15 30 20 30 5 0 9 7 9 15 0 8 4 15 9 15 5 0 16 16 25 35 9 19 21 35
26 35 6 0 10 8 10 18 0 9 11 26 25 36 14 10 25 26 25 35 0 9 14 27 30 40 17
13 30 29 30 37 0 7 11 24 25 38 14 14 25 28 25 31 0 3 27 33 60 67 33 33 60
65 60 70 0 12 149 158 161 158 5 0 34 25 64 55 29 30 57 55 60 55 4 0 13 6 20
13 32 28 45 37 52 37 5 0 15 9 23 20 8 11 23 20 33 20 9 0 20 7 23 15 4 8 14
15 23 15 9 0 23 9 31 20 8 11 29 23 47 26 18 3 33 10 33 15 0 5 7 9 15 9 8 0
15 5 15 10 0 6 9 10 20 10 11 0 20 4 20 10 0 5 16 12 35 16 19 3 35 10 35 15
0 5 11 9 25 9 14 0 25 5 25 10 0 6 11 10 24 10 13 0 26 4 28 9 5 13 98 24 98
12 0 -6 -6 -11 -14 -11 -8 0 -21 -8 -28 -19 -7 -10 -28 -22 -46 -25 -17 -4
-32 -12 -32 -17 0 -5 -8 -9 -18 -9 -10 0 -24 -9 -32 -20 -8 -10 -27 -22 -42
-26 -16 -3 -34 -14 -41 -25 -6 -10 -20 -19 -29 -19 -10 0 -18 -4 -18 -9 0 -5
-8 -12 -19 -16 -10 -3 -33 -19 -50 -35 -17 -17 -33 -30 -37 -30 -3 0 -12 -6
-19 -12 -30 -27 -44 -38 -50 -38 -3 0 -17 -10 -30 -22 -13 -13 -30 -28 -37
-34 -7 -6 -20 -21 -28 -33 -8 -11 -21 -21 -28 -21 -15 0 -182 -164 -182 -179
0 -9 -10 -20 -62 -68 -20 -18 -38 -41 -38 -48 0 -3 -11 -17 -25 -31 -14 -14
-25 -30 -25 -37 0 -7 -9 -19 -20 -27 -11 -8 -20 -22 -20 -31 0 -9 -7 -19 -15
-23 -8 -3 -15 -14 -15 -23 0 -10 -9 -25 -20 -33 -11 -8 -20 -20 -20 -27 0 -7
-4 -13 -9 -13 -5 0 -17 -20 -28 -45 -10 -25 -21 -45 -25 -45 -5 0 -8 -9 -8
-20 0 -11 -4 -20 -10 -20 -5 0 -10 -7 -10 -15 0 -8 -4 -15 -9 -15 -5 0 -12
-16 -15 -35 -4 -19 -11 -35 -16 -35 -6 0 -10 -9 -10 -20 0 -11 -4 -20 -10 -20
-5 0 -10 -11 -10 -24 0 -13 -5 -26 -11 -28 -5 -2 -13 -22 -16 -46 -3 -23 -10
-42 -14 -42 -5 0 -9 -11 -9 -25 0 -14 -4 -25 -10 -25 -6 0 -10 -28 -10 -65 0
-37 4 -65 10 -65 6 0 10 -11 10 -25 0 -38 72 -106 121 -112 21 -3 39 -10 39
-14 0 -5 56 -9 125 -9 69 0 125 4 125 9 0 4 36 12 80 15 44 4 80 12 80 17 0 5
11 9 25 9 14 0 25 5 25 10 0 6 9 10 20 10 11 0 20 4 20 9 0 5 16 12 35 15 19
4 35 11 35 16 0 6 9 10 20 10 11 0 20 5 20 10 0 6 7 10 15 10 8 0 15 5 15 10
0 6 9 10 20 10 11 0 23 7 26 15 4 8 15 15 25 15 10 0 19 5 19 10 0 6 7 10 15
10 8 0 15 4 15 9 0 5 14 14 30 21 17 7 39 23 49 36 11 13 24 24 31 24 7 0 23
11 36 25 13 14 28 25 33 25 14 0 231 217 231 231 0 6 11 20 25 31 14 11 25 27
25 36 0 10 11 25 24 35 13 10 30 33 37 50 7 18 21 39 31 48 10 9 18 24 18 33
0 9 4 16 10 16 5 0 12 16 16 35 3 19 10 35 15 35 5 0 9 7 9 15 0 8 5 15 10 15
6 0 10 9 10 20 0 11 4 20 9 20 5 0 12 23 16 50 4 28 11 50 16 50 5 0 9 14 9
30 0 17 5 30 10 30 6 0 10 15 10 34 0 19 5 36 10 38 6 2 13 49 17 106 3 56 10
102 15 102 4 0 8 20 8 45 0 25 5 45 10 45 6 0 10 11 10 25 0 14 4 25 9 25 5 0
12 20 15 45 4 24 11 47 17 50 5 4 9 15 9 26 0 10 4 19 8 19 5 0 14 16 22 35 8
19 17 35 21 35 4 0 10 15 13 33 3 18 15 39 26 47 11 8 20 18 20 23 0 5 7 15
15 23 8 9 15 24 15 34 0 10 8 21 18 24 11 4 25 19 33 34 8 15 47 60 86 100 40
40 73 77 73 82 0 9 -303 11 -507 3z"/>
</g>
</svg>
